<?xml version="1.0" standalone="no"?>
<!DOCTYPE svg PUBLIC "-//W3C//DTD SVG 20010904//EN"
 "http://www.w3.org/TR/2001/REC-SVG-20010904/DTD/svg10.dtd">
<svg version="1.0" xmlns="http://www.w3.org/2000/svg"
 width="114.000000pt" height="114.000000pt" viewBox="0 0 114.000000 114.000000"
 preserveAspectRatio="xMidYMid meet">
<metadata>
Created by potrace 1.14, written by Peter Selinger 2001-2017
</metadata>
<g transform="translate(0.000000,114.000000) scale(0.100000,-0.100000)"
fill="#000000" stroke="none">
<path d="M470 1090 c-8 -5 -27 -10 -41 -10 -15 0 -37 -11 -50 -24 -13 -13 -50
-40 -81 -60 -70 -44 -108 -84 -108 -112 0 -12 -7 -24 -15 -28 -8 -3 -15 -15
-15 -26 0 -11 -7 -23 -15 -26 -8 -4 -15 -14 -15 -25 0 -10 -6 -22 -14 -26 -10
-6 -15 -32 -16 -88 -4 -122 -1 -205 8 -205 4 0 5 52 4 115 -3 90 0 121 12 146
9 18 16 38 16 46 0 7 7 16 15 19 8 4 15 15 15 25 0 11 7 22 15 25 8 4 15 16
15 28 0 14 14 34 37 52 20 16 42 35 49 42 7 6 17 12 22 12 6 0 12 3 14 8 7 16
85 70 113 77 17 4 73 10 126 12 91 4 100 3 160 -26 36 -17 74 -39 86 -51 12
-11 25 -20 29 -20 4 0 17 -11 30 -25 13 -14 27 -25 31 -25 4 0 22 -16 38 -36
22 -25 32 -50 36 -87 l6 -52 1 64 2 64 -66 63 c-36 35 -74 66 -85 69 -10 4
-19 11 -19 16 0 5 -5 9 -12 9 -6 0 -19 7 -28 15 -35 32 -122 55 -205 55 -44 0
-87 -5 -95 -10z"/>
<path d="M458 1001 c-15 -3 -38 -15 -50 -26 -13 -11 -45 -35 -73 -53 -63 -43
-80 -61 -89 -95 -3 -15 -11 -27 -16 -27 -6 0 -10 -9 -10 -19 0 -10 -6 -21 -14
-24 -7 -3 -16 -25 -19 -48 -3 -24 -11 -45 -16 -47 -18 -6 -14 -141 4 -158 10
-11 15 -36 15 -79 0 -47 4 -64 15 -69 8 -3 15 -15 15 -26 0 -11 5 -20 11 -20
7 0 22 -11 35 -25 13 -14 26 -25 30 -25 4 0 17 -11 30 -25 13 -14 28 -25 34
-25 5 0 10 -4 10 -10 0 -5 6 -10 14 -10 8 0 21 -6 28 -13 67 -65 236 -63 363
5 38 20 85 64 85 78 0 6 7 13 15 16 8 4 15 12 15 19 0 7 7 15 15 19 8 3 15 14
15 25 0 11 7 26 15 35 8 8 15 23 15 34 0 11 7 25 15 32 11 9 15 35 15 101 0
83 -2 92 -30 131 -25 33 -30 51 -30 95 0 60 -11 75 -120 156 -30 22 -56 44
-58 49 -2 4 -10 8 -17 8 -7 0 -26 7 -41 15 -30 15 -170 19 -226 6z m272 -192
c0 -14 10 -19 43 -21 45 -3 54 -19 15 -28 -26 -7 -37 -38 -16 -51 17 -11 23
-151 10 -233 -5 -32 -6 -75 -2 -95 5 -20 10 -61 12 -93 4 -53 3 -56 -16 -48
-19 7 -47 44 -62 80 -3 8 -12 27 -20 42 -11 21 -15 64 -15 175 1 156 -1 158
-38 76 -5 -11 -15 -24 -20 -28 -6 -3 -11 -15 -11 -25 0 -10 -6 -25 -14 -33 -8
-8 -16 -27 -18 -43 -3 -26 -7 -29 -38 -29 -35 0 -35 1 -38 47 -2 25 -10 52
-18 58 -7 7 -15 20 -16 29 -5 58 -15 -173 -11 -252 5 -78 3 -101 -8 -107 -15
-10 -39 6 -39 25 0 7 -7 18 -15 25 -8 7 -15 19 -15 27 0 8 -7 21 -15 29 -9 9
-15 34 -15 59 0 24 -4 47 -10 50 -5 3 -10 19 -10 35 0 16 5 32 10 35 6 3 10
48 10 99 0 88 -1 94 -22 101 l-23 8 23 4 c17 3 22 11 22 34 0 16 -5 38 -12 49
-7 10 -9 22 -6 26 10 9 68 -35 68 -51 0 -7 7 -15 15 -19 9 -3 15 -18 15 -35 0
-22 11 -39 45 -69 25 -22 45 -47 45 -56 0 -9 8 -16 20 -16 13 0 20 7 20 19 0
11 27 48 60 83 44 46 60 70 60 90 0 16 -4 28 -9 28 -13 0 -20 37 -9 48 14 14
68 -26 68 -49z"/>
<path d="M996 713 c10 -40 14 -41 14 -5 0 18 -5 32 -10 32 -6 0 -8 -11 -4 -27z"/>
<path d="M1024 663 c6 -24 10 -102 8 -190 -2 -55 -5 -73 -16 -73 -8 0 -16 -13
-18 -30 -3 -16 -1 -30 4 -30 4 0 8 11 8 24 0 13 7 26 15 30 11 4 15 22 15 76
0 56 3 70 15 70 8 0 15 7 15 15 0 8 -7 15 -15 15 -12 0 -15 13 -15 55 0 32 -4
55 -11 55 -6 0 -8 -8 -5 -17z"/>
<path d="M133 385 c0 -38 2 -53 4 -32 2 20 2 52 0 70 -2 17 -4 1 -4 -38z"/>
<path d="M968 310 c-7 -24 -3 -38 8 -28 3 4 4 17 2 30 l-3 23 -7 -25z"/>
<path d="M157 300 c3 -11 7 -20 9 -20 2 0 4 9 4 20 0 11 -4 20 -9 20 -5 0 -7
-9 -4 -20z"/>
<path d="M941 270 c0 -9 -10 -23 -21 -33 -12 -10 -18 -23 -14 -29 6 -9 9 -8
12 2 2 8 11 20 19 27 8 6 13 20 10 30 -3 13 -5 13 -6 3z"/>
<path d="M185 260 c3 -5 8 -10 11 -10 2 0 4 5 4 10 0 6 -5 10 -11 10 -5 0 -7
-4 -4 -10z"/>
<path d="M215 240 c3 -5 8 -10 11 -10 2 0 4 5 4 10 0 6 -5 10 -11 10 -5 0 -7
-4 -4 -10z"/>
<path d="M245 210 c3 -5 8 -10 11 -10 2 0 4 5 4 10 0 6 -5 10 -11 10 -5 0 -7
-4 -4 -10z"/>
<path d="M862 175 c-25 -25 -107 -70 -167 -91 -46 -16 -211 -19 -220 -4 -3 6
-15 10 -25 10 -10 0 -25 7 -34 15 -8 8 -19 15 -25 15 -6 0 -11 4 -11 9 0 5
-11 12 -25 15 -14 4 -25 11 -25 16 0 6 -8 10 -17 10 -15 0 -13 -4 7 -20 14
-11 31 -20 38 -20 6 0 12 -4 12 -10 0 -5 7 -10 15 -10 8 0 15 -3 15 -7 0 -5
14 -16 31 -25 25 -15 55 -18 155 -18 69 0 124 4 124 9 0 5 13 12 30 16 16 4
32 11 35 16 4 5 17 9 31 9 13 0 24 4 24 9 0 6 13 18 29 27 16 10 32 26 34 36
7 23 -2 21 -31 -7z"/>
</g>
</svg>
